<?xml version="1.0" encoding="UTF-8"?>
<svg xmlns="http://www.w3.org/2000/svg" xmlns:xlink="http://www.w3.org/1999/xlink" width="68.99pt" height="82.48pt" viewBox="0 0 68.99 82.48" version="1.1">
<defs>
<clipPath id="clip1">
  <path d="M 49 69 L 68.988281 69 L 68.988281 82.480469 L 49 82.480469 Z M 49 69 "/>
</clipPath>
<clipPath id="clip2">
  <path d="M 64 28 L 68.988281 28 L 68.988281 32 L 64 32 Z M 64 28 "/>
</clipPath>
<clipPath id="clip3">
  <path d="M 65 31 L 68.988281 31 L 68.988281 36 L 65 36 Z M 65 31 "/>
</clipPath>
<clipPath id="clip4">
  <path d="M 64 35 L 68.988281 35 L 68.988281 40 L 64 40 Z M 64 35 "/>
</clipPath>
<clipPath id="clip5">
  <path d="M 64 39 L 68.988281 39 L 68.988281 44 L 64 44 Z M 64 39 "/>
</clipPath>
</defs>
<g id="surface1">
<path style=" stroke:none;fill-rule:evenodd;fill:rgb(0%,65.098572%,31.399536%);fill-opacity:1;" d="M 1.296875 81.253906 L 1.296875 73.242188 L 2.910156 73.242188 L 6.296875 78.613281 L 6.296875 73.242188 L 7.835938 73.242188 L 7.835938 81.253906 L 6.171875 81.253906 L 2.835938 75.988281 L 2.835938 81.253906 "/>
<path style=" stroke:none;fill-rule:evenodd;fill:rgb(0%,65.098572%,31.399536%);fill-opacity:1;" d="M 13.964844 78.078125 L 12.820313 75.113281 L 11.710938 78.078125 Z M 17.007813 81.253906 L 15.214844 81.253906 L 14.503906 79.429688 L 11.203125 79.429688 L 10.519531 81.253906 L 8.757813 81.253906 L 11.953125 73.242188 L 13.714844 73.242188 "/>
<path style=" stroke:none;fill-rule:evenodd;fill:rgb(0%,65.098572%,31.399536%);fill-opacity:1;" d="M 19.148438 81.253906 L 16.203125 73.242188 L 18.003906 73.242188 L 20.09375 79.171875 L 22.097656 73.242188 L 23.871094 73.242188 L 20.941406 81.253906 "/>
<path style=" stroke:none;fill-rule:evenodd;fill:rgb(0%,65.098572%,31.399536%);fill-opacity:1;" d="M 26.558594 81.253906 L 26.558594 74.597656 L 24.121094 74.597656 L 24.121094 73.242188 L 30.648438 73.242188 L 30.648438 74.597656 L 28.222656 74.597656 L 28.222656 81.253906 "/>
<path style=" stroke:none;fill-rule:evenodd;fill:rgb(0%,65.098572%,31.399536%);fill-opacity:1;" d="M 33.578125 81.253906 L 33.578125 74.597656 L 31.140625 74.597656 L 31.140625 73.242188 L 37.667969 73.242188 L 37.667969 74.597656 L 35.242188 74.597656 L 35.242188 81.253906 "/>
<path style=" stroke:none;fill-rule:evenodd;fill:rgb(0%,65.098572%,31.399536%);fill-opacity:1;" d="M 44.011719 78.300781 L 45.617188 78.78125 C 45.371094 79.664063 44.960938 80.320313 44.386719 80.746094 C 43.8125 81.175781 43.082031 81.390625 42.199219 81.390625 C 41.105469 81.390625 40.207031 81.027344 39.503906 80.296875 C 38.800781 79.570313 38.449219 78.578125 38.449219 77.3125 C 38.449219 75.980469 38.800781 74.945313 39.511719 74.203125 C 40.214844 73.464844 41.148438 73.097656 42.300781 73.097656 C 43.308594 73.097656 44.125 73.386719 44.753906 73.96875 C 45.128906 74.3125 45.40625 74.804688 45.59375 75.445313 L 43.953125 75.828125 C 43.855469 75.414063 43.652344 75.085938 43.34375 74.84375 C 43.03125 74.605469 42.65625 74.484375 42.21875 74.484375 C 41.605469 74.484375 41.109375 74.699219 40.730469 75.125 C 40.347656 75.550781 40.160156 76.238281 40.160156 77.195313 C 40.160156 78.207031 40.347656 78.925781 40.722656 79.355469 C 41.097656 79.789063 41.585938 80 42.183594 80 C 42.625 80 43.007813 79.867188 43.324219 79.589844 C 43.644531 79.316406 43.871094 78.886719 44.011719 78.300781 "/>
<g clip-path="url(#clip1)" clip-rule="nonzero">
<path style=" stroke:none;fill-rule:evenodd;fill:rgb(0%,65.098572%,31.399536%);fill-opacity:1;" d="M 59.527344 71.21875 L 61.65625 70.292969 C 61.734375 70.242188 62.039063 70.074219 62.566406 69.789063 C 62.9375 69.59375 63.230469 69.40625 63.445313 69.21875 C 63.523438 69.21875 63.566406 69.246094 63.566406 69.308594 C 63.566406 69.40625 63.5 69.515625 63.375 69.644531 C 62.863281 70.28125 62.363281 70.703125 61.878906 70.910156 C 61.496094 71.113281 60.90625 71.386719 60.113281 71.734375 C 59.324219 72.074219 58.738281 72.34375 58.367188 72.539063 C 57.898438 72.792969 57.664063 73.082031 57.664063 73.410156 C 57.546875 74.679688 57.546875 76.140625 57.664063 77.785156 C 57.773438 78.179688 57.949219 78.460938 58.195313 78.625 C 58.339844 78.722656 58.515625 78.773438 58.71875 78.773438 C 58.984375 78.773438 59.222656 78.703125 59.441406 78.566406 C 59.519531 78.519531 59.609375 78.425781 59.710938 78.296875 C 59.816406 78.164063 59.898438 78.078125 59.96875 78.039063 C 60.027344 78.019531 60.070313 78.046875 60.101563 78.125 C 60.0625 78.585938 59.839844 79.101563 59.441406 79.667969 C 59.070313 80.195313 58.710938 80.46875 58.367188 80.488281 C 57.871094 80.519531 57.5 80.332031 57.253906 79.933594 C 57.097656 79.570313 56.996094 79.128906 56.945313 78.609375 L 56.917969 78.609375 C 56.582031 79.394531 55.972656 79.953125 55.082031 80.285156 C 54.550781 80.480469 53.703125 80.640625 52.527344 80.769531 C 52.273438 80.796875 52.019531 80.8125 51.765625 80.8125 C 51.03125 80.8125 50.363281 80.703125 49.769531 80.488281 C 49.398438 80.351563 49.175781 80.113281 49.109375 79.769531 C 49.058594 79.515625 49.035156 79.246094 49.035156 78.964844 C 49.035156 78.464844 49.109375 77.9375 49.253906 77.378906 C 49.332031 77.300781 49.375 77.261719 49.375 77.261719 C 49.46875 77.261719 49.519531 77.300781 49.519531 77.378906 C 49.519531 77.386719 49.523438 77.597656 49.535156 78.007813 C 49.535156 78.261719 49.597656 78.453125 49.722656 78.582031 C 50.085938 78.785156 50.640625 78.925781 51.382813 78.992188 C 52.019531 79.050781 52.585938 79.082031 53.085938 79.082031 C 54.28125 79.082031 55.253906 78.910156 56.007813 78.566406 C 56.554688 78.3125 56.859375 77.988281 56.921875 77.601563 C 56.984375 77.214844 57.019531 76.605469 57.019531 75.765625 C 57.019531 74.925781 57.046875 74.316406 57.105469 73.9375 C 57.273438 72.878906 57.84375 72.09375 58.824219 71.582031 Z M 60.058594 75.628906 L 59.984375 75.585938 C 59.75 75.558594 59.535156 75.640625 59.339844 75.835938 C 59.195313 76.019531 59.042969 76.207031 58.886719 76.394531 C 59.257813 76.335938 59.492188 76.289063 59.589844 76.261719 C 59.835938 76.171875 60.007813 76.03125 60.101563 75.835938 C 60.113281 75.765625 60.097656 75.699219 60.058594 75.628906 M 59.429688 75.320313 C 59.78125 75.097656 60.019531 74.984375 60.148438 74.984375 C 60.226563 74.984375 60.300781 75 60.367188 75.027344 C 60.523438 75.066406 60.640625 75.199219 60.71875 75.425781 C 60.730469 75.628906 60.640625 75.839844 60.457031 76.054688 C 60.289063 76.222656 60.125 76.394531 59.957031 76.570313 C 59.769531 76.6875 59.472656 76.753906 59.0625 76.773438 C 58.582031 76.792969 58.261719 76.828125 58.105469 76.878906 C 58 76.878906 57.941406 76.839844 57.929688 76.761719 C 57.980469 76.625 58.113281 76.535156 58.328125 76.496094 C 58.550781 76.242188 58.703125 76.054688 58.785156 75.9375 C 58.929688 75.703125 59.007813 75.488281 59.019531 75.292969 C 59.039063 74.988281 59.082031 74.539063 59.148438 73.941406 C 59.257813 73.667969 59.417969 73.425781 59.632813 73.207031 C 59.664063 73.207031 59.6875 73.261719 59.707031 73.371094 C 59.667969 73.527344 59.632813 73.855469 59.605469 74.351563 C 59.585938 74.773438 59.527344 75.097656 59.429688 75.320313 M 68.886719 72.8125 L 68.082031 73.75 C 68.023438 73.800781 67.957031 73.824219 67.890625 73.824219 C 67.859375 73.824219 67.703125 73.746094 67.421875 73.589844 C 67.292969 73.484375 67.167969 73.378906 67.039063 73.28125 C 66.882813 73.144531 66.78125 73.011719 66.730469 72.886719 C 66.964844 72.621094 67.296875 72.226563 67.726563 71.695313 L 67.816406 71.726563 C 68.265625 72.128906 68.636719 72.417969 68.929688 72.59375 C 68.960938 72.621094 68.945313 72.695313 68.886719 72.8125 M 68.371094 74.617188 C 68.371094 74.558594 68.324219 74.53125 68.238281 74.53125 C 68.179688 74.578125 68.046875 74.757813 67.839844 75.058594 C 67.683594 75.292969 67.507813 75.417969 67.3125 75.425781 C 67.285156 75.417969 67.175781 75.382813 66.988281 75.324219 C 66.851563 75.273438 66.738281 75.25 66.652344 75.25 C 66.507813 75.25 66.386719 75.308594 66.300781 75.425781 C 65.773438 76.121094 65.351563 76.550781 65.039063 76.71875 C 64.714844 76.84375 64.460938 76.875 64.273438 76.804688 C 64.148438 76.230469 63.953125 75.855469 63.6875 75.691406 C 63.582031 75.640625 63.4375 75.625 63.261719 75.644531 C 63 75.742188 62.808594 76.019531 62.691406 76.46875 C 62.671875 76.554688 62.585938 76.757813 62.441406 77.070313 C 62.324219 77.316406 62.265625 77.515625 62.265625 77.671875 C 62.265625 77.796875 62.292969 77.921875 62.351563 78.039063 C 62.558594 78.3125 62.882813 78.421875 63.320313 78.363281 C 63.410156 78.410156 63.472656 78.5 63.511719 78.625 C 63.558594 78.929688 63.480469 79.148438 63.277344 79.285156 C 62.964844 79.492188 62.527344 79.707031 61.96875 79.933594 C 61.257813 80.214844 60.8125 80.402344 60.632813 80.488281 C 60.5 80.558594 60.429688 80.640625 60.429688 80.738281 C 60.507813 80.808594 60.578125 80.839844 60.632813 80.839844 C 61.09375 80.761719 61.570313 80.710938 62.058594 80.679688 C 62.410156 80.660156 62.609375 80.644531 62.660156 80.636719 C 62.894531 80.585938 63.070313 80.484375 63.191406 80.328125 C 63.414063 80.042969 63.613281 79.691406 63.789063 79.269531 C 63.832031 79.171875 63.972656 78.800781 64.214844 78.15625 C 64.550781 78.046875 64.882813 77.8125 65.214844 77.453125 C 65.3125 77.34375 65.570313 77.015625 65.992188 76.46875 C 66.070313 76.273438 66.199219 76.175781 66.375 76.175781 C 66.453125 76.175781 66.578125 76.195313 66.753906 76.242188 C 66.929688 76.285156 67.0625 76.300781 67.152344 76.292969 C 67.414063 76.261719 67.640625 76.117188 67.828125 75.851563 C 67.863281 75.804688 68 75.558594 68.222656 75.117188 C 68.320313 74.796875 68.371094 74.628906 68.371094 74.617188 M 65.792969 81.519531 L 65.75 81.519531 C 65.582031 81.714844 65.308594 81.988281 64.925781 82.34375 C 64.800781 82.363281 64.625 82.273438 64.40625 82.078125 C 64.183594 81.886719 64.0625 81.777344 64.03125 81.746094 C 63.90625 81.617188 63.8125 81.484375 63.753906 81.34375 C 63.960938 81.066406 64.308594 80.675781 64.808594 80.167969 L 64.882813 80.199219 C 65.050781 80.386719 65.410156 80.707031 65.96875 81.167969 L 66.074219 81.167969 L 66.820313 80.375 C 66.859375 80.328125 66.902344 80.328125 66.953125 80.375 C 67.117188 80.53125 67.476563 80.851563 68.023438 81.328125 L 67.980469 81.476563 C 67.765625 81.710938 67.445313 82.042969 67.027344 82.472656 C 66.910156 82.492188 66.792969 82.460938 66.675781 82.378906 C 66.554688 82.296875 66.445313 82.214844 66.335938 82.136719 C 66.191406 82.007813 66.007813 81.804688 65.792969 81.519531 "/>
</g>
<path style="fill:none;stroke-width:20;stroke-linecap:butt;stroke-linejoin:miter;stroke:rgb(65.098572%,80.799866%,21.998596%);stroke-opacity:1;stroke-miterlimit:2.613;" d="M 149.84375 177.925 C 212.539063 225.151563 237.5 222.76875 266.328125 192.925 C 423.554688 30.26875 380.664063 303.823438 539.84375 177.182813 " transform="matrix(0.1,0,0,-0.1,0,82.48)"/>
<path style=" stroke:none;fill-rule:evenodd;fill:rgb(0%,65.098572%,31.399536%);fill-opacity:1;" d="M 13.6875 56.261719 L 11.257813 58.886719 L 10.742188 58.410156 L 11.289063 55.664063 L 9.667969 57.417969 L 9.175781 56.960938 L 11.601563 54.335938 L 12.136719 54.828125 L 11.609375 57.519531 L 13.195313 55.808594 "/>
<path style=" stroke:none;fill-rule:evenodd;fill:rgb(0%,65.098572%,31.399536%);fill-opacity:1;" d="M 8.96875 53.308594 L 8.253906 54.53125 L 9.585938 54.066406 Z M 9.222656 51.382813 L 9.71875 51.992188 L 9.289063 52.75 L 10.195313 53.855469 L 11.011719 53.570313 L 11.496094 54.164063 L 7.84375 55.347656 L 7.359375 54.757813 "/>
<path style=" stroke:none;fill-rule:evenodd;fill:rgb(0%,65.098572%,31.399536%);fill-opacity:1;" d="M 8.917969 50.890625 L 6.4375 52.523438 L 7.023438 53.410156 L 6.519531 53.742188 L 4.953125 51.371094 L 5.457031 51.039063 L 6.042969 51.921875 L 8.523438 50.285156 "/>
<path style=" stroke:none;fill-rule:evenodd;fill:rgb(0%,65.098572%,31.399536%);fill-opacity:1;" d="M 7.824219 49.167969 L 4.722656 50.949219 L 4.363281 50.324219 L 7.460938 48.542969 Z M 7.824219 49.167969 "/>
<path style=" stroke:none;fill-rule:evenodd;fill:rgb(0%,65.098572%,31.399536%);fill-opacity:1;" d="M 5.328125 48.398438 C 5.695313 48.230469 5.933594 48.015625 6.042969 47.757813 C 6.15625 47.5 6.148438 47.238281 6.027344 46.976563 C 5.90625 46.71875 5.710938 46.546875 5.445313 46.46875 C 5.179688 46.386719 4.855469 46.433594 4.480469 46.609375 C 4.109375 46.785156 3.871094 46.996094 3.765625 47.242188 C 3.65625 47.492188 3.667969 47.75 3.792969 48.019531 C 3.917969 48.289063 4.113281 48.464844 4.375 48.542969 C 4.636719 48.621094 4.957031 48.574219 5.328125 48.398438 M 5.664063 49.066406 C 5.335938 49.21875 5.035156 49.300781 4.765625 49.304688 C 4.5625 49.308594 4.371094 49.277344 4.179688 49.210938 C 3.988281 49.144531 3.824219 49.050781 3.691406 48.925781 C 3.511719 48.765625 3.359375 48.550781 3.238281 48.289063 C 3.015625 47.808594 2.984375 47.359375 3.144531 46.933594 C 3.308594 46.507813 3.652344 46.171875 4.179688 45.925781 C 4.707031 45.683594 5.179688 45.632813 5.609375 45.78125 C 6.039063 45.925781 6.363281 46.238281 6.585938 46.714844 C 6.808594 47.195313 6.84375 47.648438 6.679688 48.070313 C 6.519531 48.492188 6.179688 48.824219 5.664063 49.066406 "/>
<path style=" stroke:none;fill-rule:evenodd;fill:rgb(0%,65.098572%,31.399536%);fill-opacity:1;" d="M 5.652344 44.8125 L 2.269531 45.984375 L 2.042969 45.320313 L 3.820313 43.152344 L 1.5625 43.933594 L 1.34375 43.300781 L 4.722656 42.132813 L 4.960938 42.816406 L 3.226563 44.941406 L 5.433594 44.179688 "/>
<path style=" stroke:none;fill-rule:evenodd;fill:rgb(0%,65.098572%,31.399536%);fill-opacity:1;" d="M 2.804688 40.09375 L 1.632813 40.882813 L 3.035156 41.046875 Z M 3.875 38.472656 L 4.058594 39.238281 L 3.339844 39.730469 L 3.671875 41.121094 L 4.53125 41.21875 L 4.707031 41.964844 L 0.90625 41.441406 L 0.726563 40.699219 "/>
<path style=" stroke:none;fill-rule:evenodd;fill:rgb(0%,65.098572%,31.399536%);fill-opacity:1;" d="M 3.945313 38.285156 L 0.429688 38.753906 L 0.335938 38.039063 L 3.253906 37.648438 L 3.015625 35.867188 L 3.613281 35.789063 "/>
<path style=" stroke:none;fill-rule:evenodd;fill:rgb(0%,65.098572%,31.399536%);fill-opacity:1;" d="M 3.601563 33.039063 L 0 34.242188 L 0.015625 33.460938 L 2.679688 32.609375 L 0.0507813 31.683594 L 0.0664063 30.917969 L 3.617188 32.265625 "/>
<path style=" stroke:none;fill-rule:evenodd;fill:rgb(0%,65.098572%,31.399536%);fill-opacity:1;" d="M 2.042969 30.070313 C 2.441406 30.125 2.757813 30.074219 2.992188 29.917969 C 3.222656 29.757813 3.359375 29.539063 3.398438 29.253906 C 3.4375 28.96875 3.363281 28.71875 3.183594 28.507813 C 3.003906 28.296875 2.707031 28.164063 2.296875 28.109375 C 1.890625 28.054688 1.574219 28.101563 1.351563 28.253906 C 1.125 28.40625 0.996094 28.628906 0.953125 28.921875 C 0.914063 29.21875 0.984375 29.46875 1.164063 29.675781 C 1.339844 29.882813 1.632813 30.015625 2.042969 30.070313 M 1.964844 30.8125 C 1.605469 30.761719 1.308594 30.667969 1.078125 30.527344 C 0.90625 30.421875 0.761719 30.289063 0.636719 30.132813 C 0.511719 29.972656 0.425781 29.804688 0.378906 29.628906 C 0.316406 29.398438 0.304688 29.136719 0.34375 28.847656 C 0.414063 28.324219 0.632813 27.929688 0.996094 27.660156 C 1.363281 27.390625 1.835938 27.292969 2.414063 27.371094 C 2.984375 27.449219 3.410156 27.664063 3.691406 28.019531 C 3.972656 28.375 4.082031 28.8125 4.007813 29.332031 C 3.9375 29.859375 3.722656 30.257813 3.355469 30.527344 C 2.992188 30.792969 2.527344 30.890625 1.964844 30.8125 "/>
<path style=" stroke:none;fill-rule:evenodd;fill:rgb(0%,65.098572%,31.399536%);fill-opacity:1;" d="M 3.664063 24.691406 L 4.082031 24.085938 C 4.421875 24.304688 4.648438 24.558594 4.757813 24.851563 C 4.867188 25.144531 4.863281 25.476563 4.753906 25.84375 C 4.613281 26.300781 4.347656 26.628906 3.945313 26.824219 C 3.546875 27.023438 3.078125 27.039063 2.539063 26.875 C 1.96875 26.703125 1.570313 26.421875 1.34375 26.03125 C 1.117188 25.640625 1.078125 25.207031 1.226563 24.726563 C 1.351563 24.308594 1.578125 24.003906 1.90625 23.820313 C 2.101563 23.707031 2.347656 23.65625 2.644531 23.660156 L 2.597656 24.394531 C 2.40625 24.378906 2.242188 24.421875 2.101563 24.519531 C 1.957031 24.617188 1.859375 24.757813 1.804688 24.941406 C 1.726563 25.195313 1.757813 25.429688 1.890625 25.644531 C 2.023438 25.855469 2.292969 26.023438 2.703125 26.148438 C 3.136719 26.28125 3.46875 26.296875 3.699219 26.195313 C 3.929688 26.097656 4.082031 25.921875 4.160156 25.671875 C 4.214844 25.488281 4.207031 25.3125 4.128906 25.144531 C 4.054688 24.976563 3.898438 24.828125 3.664063 24.691406 "/>
<path style=" stroke:none;fill-rule:evenodd;fill:rgb(0%,65.098572%,31.399536%);fill-opacity:1;" d="M 4.601563 21.742188 L 3.1875 21.714844 L 4.242188 22.652344 Z M 6.40625 21.027344 L 6.117188 21.757813 L 5.246094 21.75 L 4.722656 23.078125 L 5.371094 23.652344 L 5.089844 24.363281 L 2.269531 21.753906 L 2.550781 21.046875 "/>
<path style=" stroke:none;fill-rule:evenodd;fill:rgb(0%,65.098572%,31.399536%);fill-opacity:1;" d="M 6.75 20.53125 L 4.121094 19.148438 L 3.625 20.085938 L 3.089844 19.804688 L 4.414063 17.289063 L 4.949219 17.570313 L 4.457031 18.507813 L 7.085938 19.890625 "/>
<path style=" stroke:none;fill-rule:evenodd;fill:rgb(0%,65.098572%,31.399536%);fill-opacity:1;" d="M 7.707031 18.769531 L 4.605469 16.980469 L 4.96875 16.351563 L 8.066406 18.144531 Z M 7.707031 18.769531 "/>
<path style=" stroke:none;fill-rule:evenodd;fill:rgb(0%,65.098572%,31.399536%);fill-opacity:1;" d="M 7.191406 16.171875 C 7.515625 16.414063 7.816406 16.523438 8.097656 16.5 C 8.378906 16.472656 8.605469 16.347656 8.773438 16.113281 C 8.949219 15.882813 9.003906 15.632813 8.953125 15.359375 C 8.894531 15.089844 8.703125 14.828125 8.371094 14.578125 C 8.042969 14.335938 7.742188 14.222656 7.472656 14.246094 C 7.203125 14.269531 6.980469 14.398438 6.800781 14.636719 C 6.621094 14.875 6.5625 15.128906 6.613281 15.398438 C 6.667969 15.667969 6.863281 15.925781 7.191406 16.171875 M 6.761719 16.78125 C 6.472656 16.5625 6.257813 16.335938 6.128906 16.101563 C 6.03125 15.925781 5.964844 15.738281 5.933594 15.539063 C 5.902344 15.339844 5.910156 15.152344 5.953125 14.976563 C 6.011719 14.742188 6.128906 14.507813 6.300781 14.273438 C 6.617188 13.851563 7 13.609375 7.453125 13.554688 C 7.90625 13.496094 8.363281 13.640625 8.832031 13.992188 C 9.292969 14.335938 9.5625 14.734375 9.632813 15.179688 C 9.707031 15.628906 9.585938 16.0625 9.273438 16.480469 C 8.953125 16.910156 8.570313 17.148438 8.121094 17.207031 C 7.671875 17.265625 7.21875 17.125 6.761719 16.78125 "/>
<path style=" stroke:none;fill-rule:evenodd;fill:rgb(0%,65.098572%,31.399536%);fill-opacity:1;" d="M 10.460938 14.789063 L 7.792969 12.40625 L 8.261719 11.878906 L 11.019531 12.378906 L 9.234375 10.789063 L 9.683594 10.289063 L 12.351563 12.671875 L 11.871094 13.210938 L 9.167969 12.734375 L 10.910156 14.289063 "/>
<path style=" stroke:none;fill-rule:evenodd;fill:rgb(0%,65.098572%,31.399536%);fill-opacity:1;" d="M 13.253906 9.972656 L 12.019531 9.285156 L 12.511719 10.605469 Z M 15.183594 10.1875 L 14.585938 10.699219 L 13.820313 10.28125 L 12.730469 11.207031 L 13.035156 12.019531 L 12.453125 12.515625 L 11.191406 8.890625 L 11.773438 8.394531 "/>
<path style=" stroke:none;fill-rule:evenodd;fill:rgb(0%,65.098572%,31.399536%);fill-opacity:1;" d="M 15.347656 10.042969 L 13.28125 7.15625 L 13.871094 6.734375 L 15.585938 9.128906 L 17.046875 8.082031 L 17.398438 8.574219 "/>
<path style=" stroke:none;fill-rule:evenodd;fill:rgb(0%,65.098572%,31.399536%);fill-opacity:1;" d="M 19.765625 5.421875 C 19.660156 5.5625 19.597656 5.703125 19.582031 5.839844 C 19.5625 5.976563 19.578125 6.09375 19.632813 6.199219 C 19.699219 6.332031 19.796875 6.417969 19.925781 6.457031 C 20.054688 6.496094 20.191406 6.476563 20.339844 6.402344 C 20.433594 6.355469 20.515625 6.289063 20.585938 6.207031 C 20.65625 6.125 20.71875 6.011719 20.78125 5.871094 Z M 19.664063 4.636719 L 19.769531 4.425781 C 19.839844 4.269531 19.851563 4.144531 19.804688 4.054688 C 19.765625 3.972656 19.703125 3.921875 19.617188 3.898438 C 19.53125 3.871094 19.4375 3.886719 19.335938 3.9375 C 19.238281 3.984375 19.175781 4.046875 19.144531 4.125 C 19.113281 4.203125 19.117188 4.273438 19.148438 4.335938 C 19.1875 4.410156 19.28125 4.480469 19.425781 4.539063 Z M 22.214844 5.519531 L 22.085938 6.179688 C 21.859375 6.1875 21.621094 6.152344 21.375 6.082031 C 21.304688 6.265625 21.214844 6.417969 21.097656 6.546875 C 20.980469 6.675781 20.820313 6.792969 20.621094 6.894531 C 20.222656 7.097656 19.871094 7.136719 19.554688 7.019531 C 19.3125 6.925781 19.132813 6.765625 19.019531 6.539063 C 18.914063 6.335938 18.882813 6.121094 18.917969 5.894531 C 18.957031 5.671875 19.070313 5.4375 19.246094 5.191406 C 19.074219 5.117188 18.929688 5.039063 18.816406 4.949219 C 18.699219 4.859375 18.617188 4.765625 18.5625 4.660156 C 18.464844 4.46875 18.457031 4.265625 18.542969 4.050781 C 18.628906 3.839844 18.816406 3.660156 19.101563 3.511719 C 19.375 3.371094 19.625 3.332031 19.855469 3.394531 C 20.082031 3.457031 20.246094 3.589844 20.351563 3.792969 C 20.414063 3.921875 20.441406 4.0625 20.421875 4.21875 C 20.40625 4.375 20.316406 4.582031 20.160156 4.847656 L 20.902344 5.207031 C 20.90625 5.089844 20.890625 4.941406 20.847656 4.773438 L 21.46875 4.617188 C 21.511719 4.84375 21.535156 5.011719 21.542969 5.121094 C 21.546875 5.234375 21.542969 5.332031 21.527344 5.414063 C 21.628906 5.445313 21.75 5.46875 21.898438 5.492188 C 22.042969 5.511719 22.152344 5.523438 22.214844 5.519531 "/>
<path style=" stroke:none;fill-rule:evenodd;fill:rgb(0%,65.098572%,31.399536%);fill-opacity:1;" d="M 24.96875 5.050781 L 24.167969 2.1875 L 23.148438 2.472656 L 22.984375 1.890625 L 25.722656 1.125 L 25.886719 1.707031 L 24.867188 1.992188 L 25.664063 4.855469 "/>
<path style=" stroke:none;fill-rule:evenodd;fill:rgb(0%,65.098572%,31.399536%);fill-opacity:1;" d="M 26.925781 4.480469 L 26.082031 1 L 28.660156 0.375 L 28.800781 0.960938 L 26.925781 1.417969 L 27.113281 2.191406 L 28.859375 1.765625 L 29.003906 2.351563 L 27.257813 2.777344 L 27.488281 3.722656 L 29.429688 3.25 L 29.574219 3.832031 "/>
<path style=" stroke:none;fill-rule:evenodd;fill:rgb(0%,65.098572%,31.399536%);fill-opacity:1;" d="M 32.128906 2.347656 L 32.84375 2.515625 C 32.765625 2.910156 32.609375 3.214844 32.378906 3.421875 C 32.144531 3.632813 31.835938 3.75 31.453125 3.78125 C 30.976563 3.816406 30.578125 3.6875 30.246094 3.386719 C 29.914063 3.085938 29.730469 2.65625 29.683594 2.09375 C 29.640625 1.5 29.757813 1.027344 30.035156 0.675781 C 30.316406 0.324219 30.707031 0.125 31.207031 0.0898438 C 31.644531 0.0546875 32.007813 0.15625 32.300781 0.390625 C 32.476563 0.53125 32.613281 0.742188 32.71875 1.019531 L 32.019531 1.246094 C 31.960938 1.066406 31.863281 0.925781 31.71875 0.828125 C 31.578125 0.730469 31.410156 0.691406 31.21875 0.707031 C 30.957031 0.726563 30.746094 0.839844 30.597656 1.042969 C 30.445313 1.242188 30.390625 1.558594 30.421875 1.980469 C 30.457031 2.433594 30.5625 2.75 30.742188 2.925781 C 30.917969 3.105469 31.136719 3.183594 31.398438 3.164063 C 31.589844 3.152344 31.746094 3.074219 31.875 2.945313 C 32.003906 2.8125 32.089844 2.613281 32.128906 2.347656 "/>
<path style=" stroke:none;fill-rule:evenodd;fill:rgb(0%,65.098572%,31.399536%);fill-opacity:1;" d="M 33.339844 3.570313 L 33.398438 -0.00390625 L 34.121094 0.0078125 L 34.097656 1.414063 L 35.511719 1.441406 L 35.535156 0.03125 L 36.257813 0.046875 L 36.195313 3.621094 L 35.476563 3.609375 L 35.503906 2.042969 L 34.085938 2.019531 L 34.058594 3.582031 "/>
<path style=" stroke:none;fill-rule:evenodd;fill:rgb(0%,65.098572%,31.399536%);fill-opacity:1;" d="M 36.726563 3.617188 L 37.21875 0.0742188 L 37.917969 0.167969 L 39.039063 2.738281 L 39.367188 0.371094 L 40.03125 0.464844 L 39.539063 4.007813 L 38.820313 3.90625 L 37.710938 1.398438 L 37.390625 3.707031 "/>
<path style=" stroke:none;fill-rule:evenodd;fill:rgb(0%,65.098572%,31.399536%);fill-opacity:1;" d="M 40.03125 4.078125 L 40.675781 0.554688 L 41.386719 0.683594 L 40.742188 4.207031 Z M 40.03125 4.078125 "/>
<path style=" stroke:none;fill-rule:evenodd;fill:rgb(0%,65.098572%,31.399536%);fill-opacity:1;" d="M 43.769531 3.601563 L 44.386719 4 C 44.175781 4.347656 43.929688 4.578125 43.636719 4.699219 C 43.347656 4.8125 43.015625 4.820313 42.648438 4.71875 C 42.1875 4.59375 41.855469 4.332031 41.644531 3.9375 C 41.4375 3.542969 41.40625 3.074219 41.554688 2.53125 C 41.714844 1.957031 41.984375 1.554688 42.371094 1.316406 C 42.753906 1.078125 43.1875 1.027344 43.667969 1.160156 C 44.09375 1.277344 44.402344 1.496094 44.59375 1.820313 C 44.710938 2.011719 44.773438 2.253906 44.773438 2.550781 L 44.039063 2.527344 C 44.046875 2.335938 44 2.171875 43.902344 2.035156 C 43.796875 1.894531 43.65625 1.800781 43.46875 1.746094 C 43.214844 1.675781 42.980469 1.710938 42.773438 1.851563 C 42.5625 1.992188 42.402344 2.265625 42.289063 2.679688 C 42.167969 3.113281 42.160156 3.445313 42.269531 3.675781 C 42.375 3.902344 42.550781 4.054688 42.800781 4.121094 C 42.988281 4.171875 43.164063 4.15625 43.328125 4.078125 C 43.496094 3.996094 43.640625 3.835938 43.769531 3.601563 "/>
<path style=" stroke:none;fill-rule:evenodd;fill:rgb(0%,65.098572%,31.399536%);fill-opacity:1;" d="M 46.761719 4.53125 L 46.765625 3.117188 L 45.84375 4.191406 Z M 47.507813 6.324219 L 46.773438 6.046875 L 46.765625 5.179688 L 45.425781 4.675781 L 44.863281 5.332031 L 44.148438 5.066406 L 46.707031 2.203125 L 47.421875 2.472656 "/>
<path style=" stroke:none;fill-rule:evenodd;fill:rgb(0%,65.098572%,31.399536%);fill-opacity:1;" d="M 47.675781 6.441406 L 49.292969 3.28125 L 49.9375 3.609375 L 48.59375 6.230469 L 50.191406 7.050781 L 49.917969 7.585938 "/>
<path style=" stroke:none;fill-rule:evenodd;fill:rgb(0%,65.098572%,31.399536%);fill-opacity:1;" d="M 52.613281 9.398438 L 54.347656 6.984375 L 53.488281 6.363281 L 53.84375 5.871094 L 56.148438 7.535156 L 55.796875 8.023438 L 54.9375 7.40625 L 53.199219 9.820313 "/>
<path style=" stroke:none;fill-rule:evenodd;fill:rgb(0%,65.098572%,31.399536%);fill-opacity:1;" d="M 56.195313 9.539063 L 56.585938 9.902344 C 56.839844 10.136719 57.007813 10.273438 57.09375 10.308594 C 57.175781 10.347656 57.257813 10.355469 57.34375 10.335938 C 57.429688 10.316406 57.507813 10.265625 57.582031 10.1875 C 57.664063 10.097656 57.703125 10.007813 57.707031 9.910156 C 57.710938 9.808594 57.675781 9.714844 57.601563 9.621094 C 57.566406 9.574219 57.4375 9.453125 57.222656 9.253906 L 56.808594 8.871094 Z M 54.261719 10.5625 L 56.691406 7.9375 L 57.804688 8.96875 C 58.085938 9.230469 58.269531 9.441406 58.351563 9.605469 C 58.4375 9.769531 58.460938 9.949219 58.425781 10.140625 C 58.390625 10.332031 58.300781 10.503906 58.15625 10.660156 C 57.976563 10.855469 57.769531 10.964844 57.53125 10.988281 C 57.296875 11.007813 57.050781 10.929688 56.789063 10.75 C 56.839844 10.921875 56.867188 11.082031 56.871094 11.230469 C 56.871094 11.382813 56.839844 11.617188 56.777344 11.9375 L 56.625 12.746094 L 55.988281 12.160156 L 56.132813 11.234375 C 56.1875 10.902344 56.214844 10.691406 56.210938 10.589844 C 56.210938 10.492188 56.191406 10.40625 56.152344 10.332031 C 56.113281 10.261719 56.035156 10.167969 55.914063 10.058594 L 55.804688 9.957031 L 54.792969 11.054688 "/>
<path style=" stroke:none;fill-rule:evenodd;fill:rgb(0%,65.098572%,31.399536%);fill-opacity:1;" d="M 59.078125 13.355469 L 59.765625 12.117188 L 58.441406 12.617188 Z M 58.871094 15.289063 L 58.359375 14.691406 L 58.769531 13.925781 L 57.839844 12.839844 L 57.03125 13.144531 L 56.53125 12.566406 L 60.15625 11.289063 L 60.652344 11.871094 "/>
<path style=" stroke:none;fill-rule:evenodd;fill:rgb(0%,65.098572%,31.399536%);fill-opacity:1;" d="M 58.933594 15.378906 L 61.707031 13.117188 L 62.164063 13.675781 L 59.390625 15.9375 Z M 58.933594 15.378906 "/>
<path style=" stroke:none;fill-rule:evenodd;fill:rgb(0%,65.098572%,31.399536%);fill-opacity:1;" d="M 59.6875 16.324219 L 62.671875 14.355469 L 63.058594 14.941406 L 61.871094 17.476563 L 63.863281 16.164063 L 64.234375 16.722656 L 61.25 18.691406 L 60.851563 18.085938 L 62.003906 15.597656 L 60.054688 16.882813 "/>
<path style=" stroke:none;fill-rule:evenodd;fill:rgb(0%,65.098572%,31.399536%);fill-opacity:1;" d="M 61.523438 19.171875 L 64.722656 17.574219 L 65.046875 18.222656 L 61.84375 19.816406 Z M 61.523438 19.171875 "/>
<path style=" stroke:none;fill-rule:evenodd;fill:rgb(0%,65.098572%,31.399536%);fill-opacity:1;" d="M 62.09375 20.203125 L 65.335938 18.6875 L 65.632813 19.324219 L 64.085938 21.664063 L 66.25 20.652344 L 66.535156 21.261719 L 63.292969 22.773438 L 62.988281 22.117188 L 64.488281 19.820313 L 62.375 20.808594 "/>
<path style=" stroke:none;fill-rule:evenodd;fill:rgb(0%,65.098572%,31.399536%);fill-opacity:1;" d="M 65.222656 24.457031 L 65.792969 24.265625 L 66.292969 25.738281 L 64.945313 26.195313 C 64.757813 26.101563 64.566406 25.933594 64.367188 25.699219 C 64.167969 25.464844 64.023438 25.207031 63.925781 24.929688 C 63.808594 24.574219 63.777344 24.242188 63.835938 23.925781 C 63.894531 23.613281 64.039063 23.34375 64.269531 23.117188 C 64.5 22.886719 64.777344 22.71875 65.101563 22.609375 C 65.453125 22.488281 65.792969 22.457031 66.117188 22.511719 C 66.441406 22.5625 66.726563 22.707031 66.96875 22.941406 C 67.15625 23.121094 67.304688 23.375 67.414063 23.695313 C 67.558594 24.117188 67.582031 24.476563 67.488281 24.769531 C 67.390625 25.066406 67.199219 25.300781 66.910156 25.476563 L 66.550781 24.839844 C 66.703125 24.738281 66.804688 24.601563 66.855469 24.4375 C 66.90625 24.273438 66.898438 24.09375 66.832031 23.894531 C 66.726563 23.597656 66.550781 23.390625 66.304688 23.28125 C 66.054688 23.167969 65.742188 23.175781 65.371094 23.304688 C 64.96875 23.441406 64.699219 23.632813 64.558594 23.878906 C 64.417969 24.128906 64.398438 24.394531 64.496094 24.683594 C 64.546875 24.828125 64.621094 24.960938 64.726563 25.085938 C 64.832031 25.210938 64.945313 25.3125 65.058594 25.386719 L 65.488281 25.242188 "/>
<g clip-path="url(#clip2)" clip-rule="nonzero">
<path style=" stroke:none;fill-rule:evenodd;fill:rgb(0%,65.098572%,31.399536%);fill-opacity:1;" d="M 66.480469 30.570313 L 66.351563 31.292969 C 65.953125 31.238281 65.640625 31.097656 65.417969 30.878906 C 65.199219 30.65625 65.0625 30.351563 65.011719 29.972656 C 64.949219 29.5 65.058594 29.09375 65.339844 28.746094 C 65.621094 28.402344 66.042969 28.191406 66.597656 28.117188 C 67.191406 28.039063 67.667969 28.128906 68.035156 28.390625 C 68.402344 28.652344 68.617188 29.03125 68.683594 29.527344 C 68.742188 29.960938 68.660156 30.328125 68.441406 30.632813 C 68.3125 30.816406 68.109375 30.964844 67.835938 31.085938 L 67.574219 30.398438 C 67.75 30.332031 67.882813 30.226563 67.972656 30.078125 C 68.0625 29.929688 68.09375 29.761719 68.070313 29.574219 C 68.035156 29.308594 67.910156 29.109375 67.699219 28.96875 C 67.488281 28.832031 67.171875 28.792969 66.75 28.847656 C 66.300781 28.90625 65.996094 29.03125 65.824219 29.214844 C 65.65625 29.402344 65.589844 29.625 65.625 29.882813 C 65.648438 30.074219 65.730469 30.230469 65.871094 30.351563 C 66.007813 30.46875 66.210938 30.542969 66.480469 30.570313 "/>
</g>
<g clip-path="url(#clip3)" clip-rule="nonzero">
<path style=" stroke:none;fill-rule:evenodd;fill:rgb(0%,65.098572%,31.399536%);fill-opacity:1;" d="M 67.121094 32.394531 C 66.71875 32.398438 66.410156 32.5 66.207031 32.691406 C 66 32.878906 65.898438 33.121094 65.90625 33.410156 C 65.910156 33.695313 66.019531 33.929688 66.230469 34.109375 C 66.441406 34.289063 66.753906 34.378906 67.167969 34.367188 C 67.578125 34.359375 67.882813 34.265625 68.082031 34.082031 C 68.277344 33.902344 68.375 33.660156 68.367188 33.363281 C 68.363281 33.0625 68.257813 32.824219 68.050781 32.648438 C 67.84375 32.46875 67.53125 32.382813 67.121094 32.394531 M 67.082031 31.648438 C 67.449219 31.640625 67.753906 31.691406 68.003906 31.792969 C 68.1875 31.871094 68.351563 31.980469 68.5 32.117188 C 68.644531 32.257813 68.757813 32.410156 68.832031 32.574219 C 68.929688 32.796875 68.980469 33.050781 68.984375 33.34375 C 68.996094 33.871094 68.839844 34.292969 68.519531 34.617188 C 68.199219 34.9375 67.746094 35.105469 67.164063 35.117188 C 66.589844 35.125 66.132813 34.976563 65.800781 34.671875 C 65.46875 34.363281 65.300781 33.945313 65.289063 33.421875 C 65.277344 32.890625 65.433594 32.464844 65.753906 32.144531 C 66.070313 31.824219 66.515625 31.660156 67.082031 31.648438 "/>
</g>
<g clip-path="url(#clip4)" clip-rule="nonzero">
<path style=" stroke:none;fill-rule:evenodd;fill:rgb(0%,65.098572%,31.399536%);fill-opacity:1;" d="M 65.382813 35.515625 L 68.925781 35.996094 L 68.78125 37.066406 L 66.277344 37.382813 L 68.609375 38.34375 L 68.464844 39.417969 L 64.917969 38.9375 L 65.007813 38.273438 L 67.796875 38.652344 L 65.105469 37.570313 L 65.195313 36.878906 L 68.082031 36.558594 L 65.289063 36.179688 "/>
</g>
<g clip-path="url(#clip5)" clip-rule="nonzero">
<path style=" stroke:none;fill-rule:evenodd;fill:rgb(0%,65.098572%,31.399536%);fill-opacity:1;" d="M 64.839844 39.40625 L 68.320313 40.226563 L 68.074219 41.277344 L 65.550781 41.351563 L 67.777344 42.53125 L 67.53125 43.585938 L 64.050781 42.769531 L 64.203125 42.117188 L 66.945313 42.761719 L 64.363281 41.425781 L 64.523438 40.75 L 67.425781 40.703125 L 64.6875 40.0625 "/>
</g>
<path style=" stroke:none;fill-rule:evenodd;fill:rgb(0%,65.098572%,31.399536%);fill-opacity:1;" d="M 63.84375 43.234375 L 67.210938 44.453125 L 66.964844 45.132813 L 63.597656 43.914063 Z M 63.84375 43.234375 "/>
<path style=" stroke:none;fill-rule:evenodd;fill:rgb(0%,65.098572%,31.399536%);fill-opacity:1;" d="M 64.59375 44.558594 L 64.398438 45.238281 C 64.164063 45.191406 63.96875 45.207031 63.820313 45.285156 C 63.667969 45.367188 63.554688 45.507813 63.472656 45.710938 C 63.390625 45.929688 63.367188 46.109375 63.417969 46.253906 C 63.46875 46.402344 63.550781 46.5 63.671875 46.546875 C 63.753906 46.578125 63.828125 46.582031 63.902344 46.558594 C 63.976563 46.53125 64.054688 46.472656 64.144531 46.371094 C 64.199219 46.304688 64.320313 46.144531 64.5 45.890625 C 64.730469 45.566406 64.941406 45.355469 65.128906 45.261719 C 65.390625 45.132813 65.652344 45.117188 65.917969 45.222656 C 66.089844 45.289063 66.226563 45.398438 66.335938 45.550781 C 66.445313 45.707031 66.503906 45.890625 66.511719 46.101563 C 66.515625 46.3125 66.46875 46.546875 66.367188 46.800781 C 66.203125 47.21875 65.988281 47.496094 65.71875 47.636719 C 65.453125 47.773438 65.164063 47.789063 64.855469 47.679688 L 65.09375 46.996094 C 65.273438 47.035156 65.421875 47.023438 65.535156 46.957031 C 65.648438 46.890625 65.738281 46.765625 65.816406 46.574219 C 65.890625 46.378906 65.910156 46.210938 65.875 46.070313 C 65.851563 45.976563 65.796875 45.914063 65.710938 45.882813 C 65.632813 45.851563 65.550781 45.855469 65.46875 45.902344 C 65.363281 45.957031 65.210938 46.132813 65.003906 46.429688 C 64.796875 46.726563 64.621094 46.9375 64.476563 47.0625 C 64.332031 47.1875 64.171875 47.265625 63.992188 47.296875 C 63.816406 47.328125 63.621094 47.300781 63.410156 47.21875 C 63.21875 47.144531 63.0625 47.019531 62.9375 46.847656 C 62.8125 46.679688 62.75 46.480469 62.746094 46.253906 C 62.738281 46.027344 62.792969 45.769531 62.910156 45.480469 C 63.074219 45.0625 63.300781 44.777344 63.582031 44.628906 C 63.867188 44.480469 64.203125 44.457031 64.59375 44.558594 "/>
<path style=" stroke:none;fill-rule:evenodd;fill:rgb(0%,65.098572%,31.399536%);fill-opacity:1;" d="M 63.355469 47.601563 L 63.0625 48.246094 C 62.835938 48.164063 62.644531 48.152344 62.484375 48.210938 C 62.324219 48.265625 62.1875 48.390625 62.078125 48.578125 C 61.960938 48.78125 61.917969 48.957031 61.941406 49.109375 C 61.96875 49.261719 62.039063 49.367188 62.152344 49.433594 C 62.226563 49.476563 62.300781 49.492188 62.378906 49.476563 C 62.453125 49.464844 62.542969 49.414063 62.644531 49.332031 C 62.710938 49.273438 62.851563 49.132813 63.066406 48.90625 C 63.34375 48.621094 63.582031 48.445313 63.78125 48.378906 C 64.0625 48.285156 64.324219 48.3125 64.570313 48.453125 C 64.726563 48.542969 64.847656 48.675781 64.933594 48.84375 C 65.019531 49.011719 65.050781 49.203125 65.027344 49.410156 C 65 49.621094 64.917969 49.84375 64.78125 50.085938 C 64.554688 50.472656 64.300781 50.714844 64.019531 50.816406 C 63.734375 50.914063 63.449219 50.886719 63.15625 50.730469 L 63.492188 50.089844 C 63.664063 50.152344 63.8125 50.160156 63.933594 50.113281 C 64.054688 50.066406 64.164063 49.953125 64.265625 49.777344 C 64.371094 49.597656 64.417969 49.433594 64.402344 49.285156 C 64.390625 49.191406 64.347656 49.121094 64.265625 49.078125 C 64.191406 49.035156 64.113281 49.027344 64.023438 49.058594 C 63.914063 49.101563 63.730469 49.253906 63.484375 49.515625 C 63.238281 49.777344 63.035156 49.960938 62.871094 50.0625 C 62.710938 50.164063 62.539063 50.21875 62.359375 50.222656 C 62.179688 50.230469 61.992188 50.175781 61.792969 50.0625 C 61.617188 49.960938 61.476563 49.8125 61.378906 49.625 C 61.285156 49.4375 61.25 49.230469 61.277344 49.007813 C 61.304688 48.785156 61.398438 48.539063 61.550781 48.269531 C 61.78125 47.875 62.042969 47.628906 62.34375 47.519531 C 62.648438 47.417969 62.984375 47.441406 63.355469 47.601563 "/>
<path style=" stroke:none;fill-rule:evenodd;fill:rgb(0%,65.098572%,31.399536%);fill-opacity:1;" d="M 60.714844 49.851563 L 63.722656 51.785156 L 63.332031 52.394531 L 60.320313 50.457031 Z M 60.714844 49.851563 "/>
<path style=" stroke:none;fill-rule:evenodd;fill:rgb(0%,65.098572%,31.399536%);fill-opacity:1;" d="M 61.113281 52.480469 C 60.800781 52.226563 60.5 52.109375 60.21875 52.125 C 59.941406 52.144531 59.710938 52.261719 59.53125 52.488281 C 59.351563 52.714844 59.285156 52.964844 59.335938 53.238281 C 59.382813 53.511719 59.566406 53.777344 59.890625 54.035156 C 60.210938 54.289063 60.507813 54.410156 60.777344 54.394531 C 61.046875 54.378906 61.273438 54.253906 61.460938 54.023438 C 61.644531 53.789063 61.714844 53.539063 61.667969 53.269531 C 61.621094 53 61.4375 52.738281 61.113281 52.480469 M 61.558594 51.882813 C 61.84375 52.109375 62.050781 52.34375 62.175781 52.582031 C 62.265625 52.757813 62.328125 52.949219 62.351563 53.148438 C 62.378906 53.347656 62.363281 53.535156 62.316406 53.710938 C 62.25 53.941406 62.128906 54.171875 61.945313 54.402344 C 61.617188 54.8125 61.226563 55.042969 60.777344 55.085938 C 60.324219 55.128906 59.867188 54.96875 59.414063 54.609375 C 58.960938 54.25 58.707031 53.84375 58.648438 53.394531 C 58.585938 52.949219 58.71875 52.515625 59.046875 52.105469 C 59.378906 51.691406 59.769531 51.460938 60.21875 51.417969 C 60.667969 51.375 61.113281 51.527344 61.558594 51.882813 "/>
<path style=" stroke:none;fill-rule:evenodd;fill:rgb(0%,65.098572%,31.399536%);fill-opacity:1;" d="M 57.769531 53.730469 L 60.34375 56.214844 L 59.855469 56.722656 L 57.121094 56.113281 L 58.839844 57.773438 L 58.375 58.257813 L 55.796875 55.773438 L 56.300781 55.25 L 58.980469 55.832031 L 57.304688 54.214844 "/>
<path style=" stroke:none;fill-rule:evenodd;fill:rgb(0%,65.098572%,31.399536%);fill-opacity:1;" d="M 36.171875 56.8125 C 36.160156 56.074219 36.148438 54.886719 36.132813 54.148438 C 36.675781 53.613281 37.339844 53.191406 37.632813 52.480469 C 38.070313 51.414063 37.703125 50.425781 36.964844 49.789063 C 36.453125 49.347656 35.765625 49.074219 35.035156 49.054688 C 31.53125 48.972656 31.351563 53.316406 33.511719 53.960938 L 33.511719 56.699219 L 28.785156 54.074219 C 28.683594 51.125 28.585938 48.175781 28.484375 45.226563 C 27.722656 44.785156 26.957031 44.34375 26.195313 43.90625 L 26.195313 55.011719 C 29.109375 56.519531 31.617188 58.25 33.300781 60.421875 C 35.1875 62.863281 34.300781 63.003906 36.183594 60.503906 C 37.703125 58.472656 39.726563 56.632813 43.03125 55.277344 L 43.03125 43.351563 C 42.265625 44.117188 41.496094 44.886719 40.726563 45.65625 L 40.726563 53.664063 C 39.210938 54.710938 37.691406 55.761719 36.171875 56.8125 "/>
<path style=" stroke:none;fill-rule:evenodd;fill:rgb(2.398682%,64.698792%,30.999756%);fill-opacity:1;" d="M 29.769531 29.175781 C 29.140625 29.175781 29.300781 29.230469 28.878906 29.542969 C 28.074219 30.136719 28.070313 30.144531 28.871094 31.335938 C 28.519531 31.859375 28.503906 31.578125 28.332031 32.234375 C 27.082031 32.234375 26.753906 32.019531 26.515625 33.144531 C 26.128906 34.945313 27.25 33.535156 27.25 35.292969 C 27.25 36.144531 26.753906 35.46875 25.992188 36.914063 C 27.1875 39.171875 26.925781 37.632813 27.800781 38.511719 L 28.332031 39.433594 C 27.742188 39.589844 27.789063 39.453125 27.789063 40.511719 C 27.789063 40.980469 28.226563 41.160156 28.871094 41.59375 C 29.296875 41.367188 29.601563 41.175781 30.128906 41.054688 C 30.300781 41.703125 30.148438 41.535156 30.847656 41.59375 C 30.847656 43.601563 30.847656 43.394531 32.828125 43.394531 L 33.03125 42.679688 L 34.269531 42.671875 C 35.183594 44.402344 35.484375 43.65625 36.609375 43.394531 C 36.839844 42.296875 36.097656 42.527344 37.867188 41.59375 C 38.265625 41.871094 38.089844 41.621094 38.226563 42.132813 L 39.488281 42.132813 C 39.792969 41.558594 39.890625 41.527344 40.207031 41.054688 C 40.082031 40.585938 39.894531 40.402344 39.667969 39.972656 C 40.625 38.542969 40.277344 39.691406 42.007813 38.535156 L 42.007813 37.09375 C 41.597656 37 41.59375 36.953125 41.105469 36.914063 C 40.878906 34.164063 42.808594 36.75 42.007813 33.316406 C 41.273438 33.316406 40.207031 33.195313 40.207031 32.234375 C 40.207031 31.738281 40.347656 31.804688 40.75 31.695313 C 40.75 30.800781 40.890625 30.929688 40.453125 30.371094 C 39.414063 29.0625 39.082031 30.078125 38.410156 30.257813 C 38.175781 30.101563 38.003906 30.027344 37.800781 29.769531 C 37.191406 29.003906 37.640625 29.753906 37.710938 29.070313 C 37.734375 28.863281 37.78125 28.984375 37.722656 28.738281 C 37.53125 27.875 36.71875 27.917969 36.25 27.917969 C 35.480469 27.917969 35.703125 28.996094 34.808594 28.996094 C 34.046875 28.996094 33.742188 26.914063 31.992188 27.988281 C 31.316406 28.40625 31.953125 29.621094 30.835938 29.667969 C 30.050781 29.699219 30.519531 29.175781 29.769531 29.175781 "/>
<path style=" stroke:none;fill-rule:evenodd;fill:rgb(96.099854%,92.199707%,0.799561%);fill-opacity:1;" d="M 44.886719 35.472656 L 44.886719 36.554688 L 46.84375 37.476563 C 47.527344 37.792969 48.191406 37.984375 49.191406 37.960938 C 50.222656 37.933594 51.875 37.410156 52.6875 36.796875 C 53.335938 36.308594 53.164063 36.828125 53.164063 35.835938 C 53.164063 35.246094 52.789063 35.296875 52.417969 35.140625 C 52.378906 35.121094 52.328125 35.109375 52.285156 35.09375 C 49.34375 33.824219 49.296875 33.851563 46.882813 34.589844 L 45.914063 35.0625 C 45.449219 35.261719 45.320313 35.246094 44.886719 35.472656 "/>
<path style=" stroke:none;fill-rule:evenodd;fill:rgb(96.099854%,92.199707%,0.799561%);fill-opacity:1;" d="M 16.09375 36.375 C 17.445313 37.28125 18.792969 37.910156 20.429688 37.960938 C 20.722656 37.96875 21.269531 37.878906 21.671875 37.816406 C 22.488281 37.6875 22.167969 37.703125 22.859375 37.382813 L 23.363281 37.167969 C 23.402344 37.152344 23.449219 37.128906 23.484375 37.109375 C 23.523438 37.089844 23.566406 37.0625 23.601563 37.042969 C 23.636719 37.027344 23.679688 36.996094 23.714844 36.976563 C 24.757813 36.394531 24.550781 36.855469 24.550781 35.835938 C 24.550781 35.222656 24.140625 35.292969 23.671875 35.09375 L 20.410156 34.035156 C 20.238281 34.035156 18.054688 34.628906 17.855469 34.71875 C 17.269531 34.976563 17.765625 34.796875 17.398438 34.980469 C 16.332031 35.511719 16.402344 35.046875 16.09375 36.375 "/>
<path style=" stroke:none;fill-rule:evenodd;fill:rgb(96.099854%,92.199707%,0.799561%);fill-opacity:1;" d="M 43.269531 31.875 C 46.65625 31.875 47.53125 31.601563 49.542969 28.976563 C 49.929688 28.476563 49.839844 28.667969 50.074219 28.0625 C 50.09375 28.011719 50.148438 27.851563 50.164063 27.796875 C 50.496094 26.886719 50.386719 27.804688 50.464844 26.835938 C 48.023438 26.269531 45.6875 27.148438 44.328125 29.160156 L 43.730469 30 C 42.828125 31.441406 43.140625 31.324219 43.269531 31.875 "/>
<path style=" stroke:none;fill-rule:evenodd;fill:rgb(96.099854%,92.199707%,0.799561%);fill-opacity:1;" d="M 17.894531 27.195313 C 17.894531 27.816406 18.050781 27.847656 18.28125 28.25 L 19.125 29.5625 C 19.265625 29.714844 19.320313 29.78125 19.46875 29.941406 C 20.179688 30.703125 21.082031 31.292969 22.074219 31.65625 C 22.855469 31.941406 23.882813 31.875 24.910156 31.875 C 25.15625 30.828125 24.941406 30.53125 23.992188 29.199219 C 23.769531 28.886719 23.625 28.6875 23.34375 28.40625 C 22.617188 27.675781 20.820313 26.65625 19.691406 26.65625 C 18.402344 26.65625 17.894531 26.480469 17.894531 27.195313 "/>
<path style=" stroke:none;fill-rule:evenodd;fill:rgb(96.099854%,92.199707%,0.799561%);fill-opacity:1;" d="M 34.449219 27.015625 C 35.117188 26.566406 35.144531 26.519531 35.46875 25.695313 C 36.257813 23.683594 36.070313 24.902344 36.070313 21.796875 C 36.070313 21.171875 35.503906 19.816406 35.167969 19.277344 L 35.015625 19.070313 C 34.660156 18.660156 34.730469 18.800781 34.269531 18.558594 C 33.476563 19.089844 33.488281 19.261719 33.148438 19.957031 C 32.707031 20.855469 32.441406 21.496094 32.476563 22.867188 C 32.515625 24.335938 32.699219 24.703125 33.261719 25.867188 C 33.539063 26.445313 33.761719 26.832031 34.449219 27.015625 "/>
<path style=" stroke:none;fill-rule:evenodd;fill:rgb(96.099854%,92.199707%,0.799561%);fill-opacity:1;" d="M 29.769531 27.738281 C 30.300781 26.730469 29.941406 25.488281 29.507813 24.578125 L 28.695313 23.234375 C 28.441406 22.90625 28.339844 22.785156 28.023438 22.464844 C 27.570313 22.007813 27.660156 22.085938 27.109375 21.757813 C 27.074219 21.742188 27.027344 21.714844 26.992188 21.695313 L 24.910156 20.71875 C 23.964844 21.539063 24.292969 21.570313 24.613281 22.8125 C 24.789063 23.492188 24.640625 23.539063 24.929688 24.117188 C 25.410156 25.070313 26.128906 25.945313 26.964844 26.582031 L 27.730469 27.074219 C 28.421875 27.496094 28.609375 27.640625 29.769531 27.738281 "/>
<path style=" stroke:none;fill-rule:evenodd;fill:rgb(96.099854%,92.199707%,0.799561%);fill-opacity:1;" d="M 39.308594 26.117188 C 39.308594 26.847656 38.878906 28.648438 41.332031 27.242188 L 44.390625 24 C 44.570313 23.574219 44.550781 23.101563 44.683594 22.675781 C 44.878906 22.046875 45.003906 22.179688 45.066406 21.4375 C 44.839844 21.175781 44.609375 20.945313 44.347656 20.71875 C 43.785156 20.867188 44.039063 20.855469 43.457031 21.089844 C 43.058594 21.25 42.996094 21.25 42.597656 21.488281 C 42.570313 21.503906 42.367188 21.632813 42.265625 21.695313 C 41.378906 22.21875 41.710938 21.992188 40.996094 22.769531 L 39.976563 24.085938 C 39.613281 24.789063 39.308594 25.371094 39.308594 26.117188 "/>
<path style=" stroke:none;fill-rule:evenodd;fill:rgb(100%,94.898987%,0%);fill-opacity:1;" d="M 34.269531 41.390625 C 37.292969 41.390625 39.761719 38.929688 39.761719 35.914063 C 39.761719 32.902344 37.292969 30.441406 34.269531 30.441406 C 31.242188 30.441406 28.777344 32.902344 28.777344 35.914063 C 28.777344 38.929688 31.242188 41.390625 34.269531 41.390625 "/>
</g>
</svg>
