<?xml version="1.0" encoding="utf-8"?>
<!-- Generator: Adobe Illustrator 25.0.1, SVG Export Plug-In . SVG Version: 6.00 Build 0)  -->
<svg version="1.0" id="katman_1" xmlns="http://www.w3.org/2000/svg" xmlns:xlink="http://www.w3.org/1999/xlink" x="0px" y="0px"
	 viewBox="0 0 242 138" style="enable-background:new 0 0 242 138;" xml:space="preserve">
<style type="text/css">
	.st0{fill:#FF642D;}
</style>
<path d="M157.7,66.2c0-3.2-2-5.5-5.7-5.5h-12.2v16.6h4v-5.7h4.7l4.6,5.7h4.5v-0.4l-4.5-5.4C156,70.9,157.7,68.8,157.7,66.2z
	 M151.5,68.2h-7.7v-4.1h7.7c1.4,0,2.3,0.8,2.3,2.1C153.9,67.5,153,68.2,151.5,68.2z"/>
<path d="M218.1,60.6h-3.7v6.3h-10.1v-6.3h-4v16.6h4v-6.5h10.1v6.5h3.7V60.6z"/>
<path d="M129.1,60.6l-4.4,13.9h-0.2L120,60.6h-7.1v16.6h3.8V63.6h0.2l4.4,13.6h6.1l4.5-13.6h0.2v13.6h3.9V60.6H129.1z"/>
<path d="M85.6,67.4c-1.4-0.1-4-0.4-5.5-0.5c-1.4-0.1-2.2-0.6-2.2-1.5c0-0.9,0.9-1.6,4.3-1.6c3,0,5.8,0.7,8.3,1.8v-3.7
	c-2.4-1.2-5.1-1.7-8.5-1.7c-4.7,0-8,2-8,5.3c0,2.8,1.9,4.4,5.8,4.8c1.4,0.2,3.8,0.4,5.4,0.5c1.8,0.1,2.3,0.7,2.3,1.5
	c0,1.1-1.3,1.8-4.4,1.8c-3.2,0-6.5-1.1-8.9-2.5v3.8c1.9,1.3,5.1,2.3,8.8,2.3c5.1,0,8.4-2,8.4-5.5C91.4,69.5,89.7,67.8,85.6,67.4z"/>
<path d="M94.1,60.6v16.6h15.4v-3.4H97.9v-3.4h11.4v-3.4H97.9V64h11.6v-3.4H94.1z"/>
<path d="M192,67.4c-1.4-0.1-4-0.4-5.5-0.5c-1.4-0.1-2.2-0.6-2.2-1.5c0-0.9,0.9-1.6,4.3-1.6c3,0,5.8,0.6,8.3,1.8v-3.7
	c-2.4-1.2-5.1-1.7-8.5-1.7c-4.7,0-8,2-8,5.3c0,2.8,1.9,4.4,5.8,4.8c1.4,0.2,3.8,0.4,5.4,0.5c1.8,0.1,2.3,0.7,2.3,1.5
	c0,1.1-1.3,1.8-4.4,1.8c-3.2,0-6.5-1.1-8.9-2.5v3.8c1.9,1.3,5.1,2.3,8.8,2.3c5.1,0,8.4-2,8.4-5.5C197.8,69.5,196,67.8,192,67.4z"/>
<path d="M173.7,60.6v8.5c0,3.2-2,5-4.9,5c-3,0-4.9-1.7-4.9-5v-8.4h-4v8.1c0,6,3.8,9,8.9,9c5,0,8.8-2.9,8.8-8.8v-8.2H173.7z"/>
<path class="st0" d="M60.4,68.8c0,0.8-0.4,0.9-1.4,0.9c-1.1,0-1.3-0.2-1.4-1c-0.2-2.1-1.6-3.9-4-4c-0.7-0.1-0.9-0.3-0.9-1.3
	c0-0.9,0.1-1.3,0.8-1.3C57.5,62.2,60.4,65.5,60.4,68.8z M66.3,68.8c0-6.2-4.2-12.8-14-12.8H33c-0.4,0-0.6,0.2-0.6,0.6
	c0,0.2,0.1,0.4,0.3,0.5c0.7,0.6,1.7,1.2,3.1,1.9c1.3,0.7,2.4,1.1,3.4,1.5c0.4,0.2,0.6,0.4,0.6,0.6c0,0.3-0.2,0.6-0.7,0.6H23.7
	c-0.5,0-0.7,0.3-0.7,0.6c0,0.3,0.1,0.5,0.3,0.7c1.2,1.3,3.2,2.9,6.1,4.7c2.5,1.6,5.7,3.3,8.2,4.5c0.4,0.2,0.6,0.4,0.6,0.7
	c0,0.3-0.2,0.5-0.7,0.5h-7.1c-0.4,0-0.6,0.2-0.6,0.5c0,0.2,0.1,0.4,0.3,0.6c1.6,1.5,4.2,3,7.6,4.5c4.6,1.9,9.2,3.1,14.4,3.1
	C62,82,66.3,74.6,66.3,68.8z M53.4,77.7c-4.8,0-8.9-3.9-8.9-8.9c0-4.8,4-8.7,8.9-8.7c5,0,8.9,3.9,8.9,8.7
	C62.3,73.7,58.4,77.7,53.4,77.7z"/>
</svg>
